<svg width="211" height="55" viewBox="0 0 211 55" fill="none" xmlns="http://www.w3.org/2000/svg">
<path d="M23.3867 2.8125H33.6523V37.9688C33.6523 41.9062 32.9258 45.1172 31.4727 47.6016C30.043 50.0625 28.0625 51.8672 25.5312 53.0156C23 54.1406 20.1055 54.7031 16.8477 54.7031C13.5664 54.7031 10.6484 54.1406 8.09375 53.0156C5.53906 51.8672 3.54688 50.0625 2.11719 47.6016C0.710938 45.1172 0.0078125 41.9062 0.0078125 37.9688V2.8125H10.2734V37.9688C10.2734 40.1953 10.5195 41.9062 11.0117 43.1016C11.5273 44.2969 12.2656 45.1172 13.2266 45.5625C14.2109 45.9844 15.418 46.1953 16.8477 46.1953C18.3008 46.1953 19.4961 45.9844 20.4336 45.5625C21.3945 45.1172 22.1211 44.2969 22.6133 43.1016C23.1289 41.9062 23.3867 40.1953 23.3867 37.9688V2.8125ZM50.7031 24.082V54H40.8242V15.9609H50.0703L50.7031 24.082ZM49.2266 33.6797L46.5898 33.75C46.543 30.8906 46.8125 28.3242 47.3984 26.0508C48.0078 23.7773 48.8633 21.8438 49.9648 20.25C51.0898 18.6328 52.4258 17.4023 53.9727 16.5586C55.543 15.6914 57.2891 15.2578 59.2109 15.2578C60.6875 15.2578 62.0352 15.5156 63.2539 16.0312C64.4961 16.5469 65.5625 17.3672 66.4531 18.4922C67.3438 19.6172 68.0352 21.1172 68.5273 22.9922C69.0195 24.8438 69.2656 27.1172 69.2656 29.8125V54H59.3867V29.7422C59.3867 28.1016 59.2227 26.8359 58.8945 25.9453C58.5664 25.0312 58.0742 24.3984 57.418 24.0469C56.7617 23.6719 55.9414 23.4844 54.957 23.4844C54.0195 23.4844 53.1875 23.7539 52.4609 24.293C51.7344 24.8086 51.125 25.5234 50.6328 26.4375C50.1641 27.3516 49.8008 28.4297 49.543 29.6719C49.3086 30.9141 49.2031 32.25 49.2266 33.6797ZM94.8945 45.5977V0H104.773V54L95.8438 54.0352L94.8945 45.5977ZM75.1719 36.3164V33.7852C75.1719 30.6914 75.4297 27.9844 75.9453 25.6641C76.4844 23.3438 77.2812 21.4102 78.3359 19.8633C79.3906 18.3164 80.6797 17.168 82.2031 16.418C83.75 15.6445 85.5195 15.2578 87.5117 15.2578C89.3164 15.2578 90.8984 15.7148 92.2578 16.6289C93.6406 17.5195 94.8125 18.7734 95.7734 20.3906C96.7344 22.0078 97.5078 23.918 98.0938 26.1211C98.6797 28.3242 99.0898 30.7383 99.3242 33.3633V37.0195C99.043 39.5039 98.6094 41.8242 98.0234 43.9805C97.4609 46.1367 96.6875 48.0117 95.7031 49.6055C94.7422 51.1992 93.582 52.4531 92.2227 53.3672C90.8633 54.2578 89.2812 54.7031 87.4766 54.7031C85.4844 54.7031 83.7148 54.3047 82.168 53.5078C80.6445 52.7109 79.3555 51.5391 78.3008 49.9922C77.2695 48.4219 76.4844 46.5 75.9453 44.2266C75.4297 41.9297 75.1719 39.293 75.1719 36.3164ZM85.0156 33.7852V36.3164C85.0156 38.0977 85.0977 39.6328 85.2617 40.9219C85.4492 42.1875 85.7422 43.2305 86.1406 44.0508C86.5625 44.8477 87.1133 45.4453 87.793 45.8438C88.4727 46.2188 89.3164 46.4062 90.3242 46.4062C91.6367 46.4062 92.7031 46.0781 93.5234 45.4219C94.3438 44.7422 94.9531 43.8164 95.3516 42.6445C95.7734 41.4492 96.0078 40.0781 96.0547 38.5312V31.8867C96.0078 30.5977 95.8555 29.4375 95.5977 28.4062C95.3398 27.375 94.9766 26.4961 94.5078 25.7695C94.0391 25.043 93.4531 24.4805 92.75 24.082C92.0703 23.6836 91.2734 23.4844 90.3594 23.4844C89.375 23.4844 88.5312 23.6836 87.8281 24.082C87.1484 24.4805 86.6094 25.1016 86.2109 25.9453C85.8125 26.7656 85.5078 27.832 85.2969 29.1445C85.1094 30.4336 85.0156 31.9805 85.0156 33.7852ZM122.035 24.4336V54H112.191V15.9609H121.473L122.035 24.4336ZM131 15.6797L130.859 25.4883C130.414 25.3945 129.875 25.3242 129.242 25.2773C128.633 25.2305 128.094 25.207 127.625 25.207C126.523 25.207 125.586 25.3828 124.812 25.7344C124.039 26.0625 123.395 26.5664 122.879 27.2461C122.387 27.9023 122.012 28.7227 121.754 29.707C121.496 30.6914 121.344 31.8047 121.297 33.0469L119.434 32.3438C119.434 29.8594 119.621 27.5859 119.996 25.5234C120.395 23.4375 120.98 21.6328 121.754 20.1094C122.527 18.5625 123.453 17.3672 124.531 16.5234C125.633 15.6797 126.875 15.2578 128.258 15.2578C128.727 15.2578 129.219 15.3047 129.734 15.3984C130.273 15.4688 130.695 15.5625 131 15.6797ZM150.652 54.7031C148.051 54.7031 145.742 54.3047 143.727 53.5078C141.734 52.7109 140.047 51.5625 138.664 50.0625C137.281 48.5391 136.227 46.6992 135.5 44.543C134.773 42.3867 134.41 39.9258 134.41 37.1602V34.0312C134.41 30.9375 134.762 28.2305 135.465 25.9102C136.168 23.5664 137.164 21.5977 138.453 20.0039C139.742 18.4102 141.324 17.2266 143.199 16.4531C145.098 15.6562 147.242 15.2578 149.633 15.2578C152.023 15.2578 154.121 15.6562 155.926 16.4531C157.754 17.2266 159.266 18.3984 160.461 19.9688C161.656 21.5156 162.559 23.4375 163.168 25.7344C163.777 28.0312 164.082 30.7031 164.082 33.75V38.25H138.594V31.3242H154.414V30.4453C154.414 28.8984 154.25 27.6094 153.922 26.5781C153.594 25.5234 153.078 24.7383 152.375 24.2227C151.672 23.707 150.734 23.4492 149.562 23.4492C148.578 23.4492 147.746 23.6484 147.066 24.0469C146.387 24.4453 145.848 25.0664 145.449 25.9102C145.051 26.7539 144.758 27.8555 144.57 29.2148C144.383 30.5508 144.289 32.1562 144.289 34.0312V37.1602C144.289 38.918 144.441 40.3945 144.746 41.5898C145.051 42.7617 145.496 43.7227 146.082 44.4727C146.691 45.1992 147.43 45.7266 148.297 46.0547C149.164 46.3594 150.172 46.5117 151.32 46.5117C153.055 46.5117 154.613 46.207 155.996 45.5977C157.402 44.9648 158.598 44.1094 159.582 43.0312L163.52 49.0078C162.84 49.8984 161.902 50.7891 160.707 51.6797C159.512 52.5703 158.082 53.2969 156.418 53.8594C154.754 54.4219 152.832 54.7031 150.652 54.7031ZM178.707 43.9805L185.352 15.9609H191.539L190.027 27.3516L183.488 54H178.32L178.707 43.9805ZM176.809 15.9609L181.344 43.9102L181.309 54H175.262L167.352 15.9609H176.809ZM196.531 43.4531L200.926 15.9609H210.453L202.508 54H196.461L196.531 43.4531ZM192.383 15.9609L199.027 43.7695L199.484 54H194.316L187.777 27.4219L186.301 15.9609H192.383Z" fill="#FDFDFD"/>
</svg>
